<svg width="800" height="800" viewBox="0 0 800 800" fill="none" xmlns="http://www.w3.org/2000/svg">
<g clip-path="url(#clip0_1_9)">
<path d="M540.573 348.923L406.483 464.417C395.308 462.589 383.453 465.942 374.845 474.562C360.631 488.764 360.631 511.805 374.845 526.008C389.047 540.22 412.088 540.22 426.289 526.008C434.909 517.398 438.262 505.545 436.436 494.37L551.928 360.281C555.028 356.672 555.137 351.623 552.183 348.669C549.23 345.717 544.181 345.825 540.573 348.923Z" fill="black"/>
<path d="M675.62 384.4C652.883 330.68 615.009 285.072 567.283 252.828C543.408 236.7 517.073 223.914 488.947 215.162C460.822 206.42 430.892 201.711 399.994 201.711C358.792 201.711 319.358 210.077 283.544 225.236C229.812 247.961 184.214 285.845 151.961 333.573C135.833 357.448 123.059 383.783 114.306 411.908C105.566 440.034 100.855 469.952 100.855 500.861C100.855 542.064 109.22 581.497 124.38 617.311C147.105 671.044 184.989 716.641 232.716 748.895C256.592 765.011 282.925 777.795 311.052 786.548C339.178 795.291 369.094 800 399.992 800C441.205 800 480.641 791.634 516.455 776.475C570.175 753.75 615.784 715.864 648.027 668.138C664.153 644.263 676.939 617.928 685.692 589.803C694.434 561.677 699.142 531.759 699.142 500.861C699.144 459.647 690.778 420.213 675.62 384.4ZM571.169 651.441L539.495 619.769L518.912 640.35L550.573 672.011C543.261 678.453 535.548 684.458 527.448 689.93C509.25 702.231 489.2 711.953 467.808 718.6C450.833 723.88 433.023 727.197 414.547 728.359V683.573H385.453V728.372C359.216 726.725 334.298 720.684 311.259 710.948C288.547 701.347 267.684 688.114 249.402 672.023L281.087 640.35L260.506 619.769L228.844 651.43C222.403 644.117 216.397 636.403 210.925 628.305C198.623 610.108 188.903 590.058 182.255 568.664C176.977 551.702 173.659 533.878 172.497 515.403H217.281V486.297H172.484C174.131 460.084 180.173 435.155 189.908 412.114C199.508 389.402 212.73 368.552 228.833 350.269L260.506 381.942L281.087 361.361L249.427 329.7C256.739 323.258 264.452 317.253 272.552 311.781C290.75 299.48 310.8 289.758 332.194 283.111C349.156 277.833 366.978 274.514 385.455 273.352V318.138H414.548V273.341C440.773 274.988 465.702 281.028 488.742 290.762C529.605 308.041 564.486 337 589.077 373.409C601.378 391.606 611.1 411.656 617.747 433.05C623.027 450.013 626.344 467.834 627.506 486.298L582.72 486.311V515.405H627.519C625.872 541.63 619.831 566.559 610.095 589.6C600.494 612.309 587.259 633.172 571.169 651.441Z" fill="black"/>
<path d="M673.877 219.738L629.284 182.314L582.466 238.128L627.058 275.541L673.877 219.738Z" fill="black"/>
<path d="M357.147 155.834V182.314H442.856V155.834C448.85 152.263 454.37 147.977 459.261 143.073C474.42 127.939 483.816 106.92 483.816 83.8078C483.816 60.6938 474.42 39.6766 459.261 24.5547C444.125 9.39533 423.108 -0.0124876 399.994 1.24409e-05C376.892 -0.0124876 355.862 9.39533 340.728 24.5547C325.581 39.6766 316.186 60.6953 316.186 83.8078C316.186 106.92 325.581 127.939 340.728 143.073C345.631 147.977 351.153 152.263 357.147 155.834ZM357.147 84.2203V129.695C356.627 129.2 356.105 128.714 355.597 128.219C344.216 116.814 337.219 101.183 337.206 83.8094C337.219 66.4344 344.216 50.8047 355.597 39.4109C366.989 28.0297 382.631 21.0203 399.994 21.0203C417.369 21.0203 432.998 28.0297 444.405 39.4109C455.786 50.8047 462.784 66.4344 462.795 83.8094C462.783 101.183 455.784 116.814 444.405 128.219C443.895 128.714 443.377 129.2 442.855 129.695V84.2203H357.147Z" fill="black"/>
</g>
<defs>
<clipPath id="clip0_1_9">
<rect width="800" height="800" fill="white"/>
</clipPath>
</defs>
</svg>
